{
  "accessors": [
    {
      "bufferView": 2,
      "componentType": 5126,
      "count": 2320,
      "max": [
        7.456301212310791,
        0.7762308716773987,
        7.767092704772949
      ],
      "min": [
        -7.602774620056152,
        -0.8297142386436462,
        -6.643136978149414
      ],
      "type": "VEC3"
    },
    {
      "bufferView": 2,
      "byteOffset": 27840,
      "componentType": 5126,
      "count": 2320,
      "max": [
        0.9941258430480957,
        1.0,
        1.0
      ],
      "min": [
        -1.0,
        -1.0,
        -1.0
      ],
      "type": "VEC3"
    },
    {
      "bufferView": 1,
      "componentType": 5126,
      "count": 2320,
      "max": [
        1.0,
        1.0
      ],
      "min": [
        0.0,
        0.0
      ],
      "type": "VEC2"
    },
    {
      "bufferView": 0,
      "componentType": 5125,
      "count": 3672,
      "type": "SCALAR"
    },
    {
      "bufferView": 2,
      "byteOffset": 55680,
      "componentType": 5126,
      "count": 539,
      "max": [
        7.308021545410156,
        0.7555641531944275,
        7.624373912811279
      ],
      "min": [
        -7.460048675537109,
        -0.6262935996055603,
        -6.5108537673950195
      ],
      "type": "VEC3"
    },
    {
      "bufferView": 2,
      "byteOffset": 62148,
      "componentType": 5126,
      "count": 539,
      "max": [
        0.07671967148780823,
        1.0,
        0.1142113134264946
      ],
      "min": [
        -0.23368605971336365,
        0.9678656458854675,
        -0.18993817269802094
      ],
      "type": "VEC3"
    },
    {
      "bufferView": 1,
      "byteOffset": 18560,
      "componentType": 5126,
      "count": 539,
      "max": [
        0.8437500596046448,
        0.7421875
      ],
      "min": [
        0.65625,
        0.515625
      ],
      "type": "VEC2"
    },
    {
      "bufferView": 0,
      "byteOffset": 14688,
      "componentType": 5125,
      "count": 840,
      "type": "SCALAR"
    },
    {
      "bufferView": 2,
      "byteOffset": 68616,
      "componentType": 5126,
      "count": 776,
      "max": [
        8.299999237060547,
        1.0,
        8.299999237060547
      ],
      "min": [
        -8.299999237060547,
        -1.0,
        -8.299999237060547
      ],
      "type": "VEC3"
    },
    {
      "bufferView": 2,
      "byteOffset": 77928,
      "componentType": 5126,
      "count": 776,
      "max": [
        0.9987955689430237,
        1.0,
        0.9987955093383789
      ],
      "min": [
        -0.9987955689430237,
        -1.0,
        -0.9987955689430237
      ],
      "type": "VEC3"
    },
    {
      "bufferView": 1,
      "byteOffset": 22872,
      "componentType": 5126,
      "count": 776,
      "max": [
        1.0,
        1.0
      ],
      "min": [
        0.0,
        0.01000000536441803
      ],
      "type": "VEC2"
    },
    {
      "bufferView": 0,
      "byteOffset": 18048,
      "componentType": 5125,
      "count": 1536,
      "type": "SCALAR"
    },
    {
      "bufferView": 2,
      "byteOffset": 87240,
      "componentType": 5126,
      "count": 1282,
      "max": [
        0.8799996376037598,
        1.0575498342514038,
        0.8799996376037598
      ],
      "min": [
        -0.8799996376037598,
        0.2283366322517395,
        -0.8799996376037598
      ],
      "type": "VEC3"
    },
    {
      "bufferView": 2,
      "byteOffset": 102624,
      "componentType": 5126,
      "count": 1282,
      "max": [
        0.9987955689430237,
        1.0,
        0.9987955689430237
      ],
      "min": [
        -0.9987955689430237,
        -1.0,
        -0.9987955689430237
      ],
      "type": "VEC3"
    },
    {
      "bufferView": 1,
      "byteOffset": 29080,
      "componentType": 5126,
      "count": 1282,
      "max": [
        1.0,
        1.0
      ],
      "min": [
        0.0,
        0.010000020265579224
      ],
      "type": "VEC2"
    },
    {
      "bufferView": 0,
      "byteOffset": 24192,
      "componentType": 5125,
      "count": 2292,
      "type": "SCALAR"
    },
    {
      "bufferView": 2,
      "byteOffset": 118008,
      "componentType": 5126,
      "count": 1884,
      "max": [
        0.04537300765514374,
        5.570172309875488,
        9.306551933288574
      ],
      "min": [
        -0.07462719082832336,
        -4.4268999099731445,
        -8.525566101074219
      ],
      "type": "VEC3"
    },
    {
      "bufferView": 2,
      "byteOffset": 140616,
      "componentType": 5126,
      "count": 1884,
      "max": [
        0.9238787293434143,
        0.9996306896209717,
        0.9659052491188049
      ],
      "min": [
        -0.9238787293434143,
        -0.9996307492256165,
        -0.9659057259559631
      ],
      "type": "VEC3"
    },
    {
      "bufferView": 1,
      "byteOffset": 39336,
      "componentType": 5126,
      "count": 1884,
      "max": [
        1.0,
        0.9828302264213562
      ],
      "min": [
        0.0,
        0.5339617729187012
      ],
      "type": "VEC2"
    },
    {
      "bufferView": 0,
      "byteOffset": 33360,
      "componentType": 5125,
      "count": 3324,
      "type": "SCALAR"
    },
    {
      "bufferView": 2,
      "byteOffset": 163224,
      "componentType": 5126,
      "count": 1884,
      "max": [
        -2.4713528156280518,
        4.998536109924316,
        8.910463333129883
      ],
      "min": [
        -2.591353178024292,
        -4.998536109924316,
        -8.92165470123291
      ],
      "type": "VEC3"
    },
    {
      "bufferView": 2,
      "byteOffset": 185832,
      "componentType": 5126,
      "count": 1884,
      "max": [
        0.9238808155059814,
        0.9996306896209717,
        0.9659056663513184
      ],
      "min": [
        -0.9238811135292053,
        -0.9996306896209717,
        -0.9659048914909363
      ],
      "type": "VEC3"
    },
    {
      "bufferView": 1,
      "byteOffset": 54408,
      "componentType": 5126,
      "count": 1884,
      "max": [
        1.0,
        0.9828302264213562
      ],
      "min": [
        0.0,
        0.5339617729187012
      ],
      "type": "VEC2"
    },
    {
      "bufferView": 0,
      "byteOffset": 46656,
      "componentType": 5125,
      "count": 3324,
      "type": "SCALAR"
    },
    {
      "bufferView": 3,
      "componentType": 5126,
      "count": 250,
      "max": [
        10.416666984558105
      ],
      "min": [
        0.0416666679084301
      ],
      "type": "SCALAR"
    },
    {
      "bufferView": 5,
      "componentType": 5126,
      "count": 250,
      "max": [
        0.9989544749259949,
        0.045717135071754456,
        0.9989345669746399,
        0.04571622237563133
      ],
      "min": [
        -0.9733041524887085,
        -0.04454013332724571,
        -0.21262313425540924,
        -0.009730619378387928
      ],
      "type": "VEC4"
    },
    {
      "bufferView": 3,
      "byteOffset": 1000,
      "componentType": 5126,
      "count": 122,
      "max": [
        10.416666984558105
      ],
      "min": [
        0.0416666679084301
      ],
      "type": "SCALAR"
    },
    {
      "bufferView": 4,
      "componentType": 5126,
      "count": 122,
      "max": [
        0.933506429195404,
        0.933506429195404,
        0.9335064888000488
      ],
      "min": [
        0.9335063099861145,
        0.933506429195404,
        0.9335063695907593
      ],
      "type": "VEC3"
    }
  ],
  "animations": [
    {
      "channels": [
        {
          "sampler": 0,
          "target": {
            "node": 3,
            "path": "rotation"
          }
        },
        {
          "sampler": 1,
          "target": {
            "node": 3,
            "path": "scale"
          }
        }
      ],
      "name": "Animation",
      "samplers": [
        {
          "input": 24,
          "interpolation": "LINEAR",
          "output": 25
        },
        {
          "input": 26,
          "interpolation": "LINEAR",
          "output": 27
        }
      ]
    }
  ],
  "asset": {
    "extras": {
      "author": "Akabuki (https://sketchfab.com/Akabuki)",
      "license": "CC-BY-4.0 (http://creativecommons.org/licenses/by/4.0/)",
      "source": "https://sketchfab.com/3d-models/neonventanix-1477dc547b8b45f3b70b2527f734bb8e",
      "title": "NeonVentAniX"
    },
    "generator": "Sketchfab-12.67.0",
    "version": "2.0"
  },
  "bufferViews": [
    {
      "buffer": 0,
      "byteLength": 59952,
      "name": "floatBufferViews",
      "target": 34963
    },
    {
      "buffer": 0,
      "byteLength": 69480,
      "byteOffset": 59952,
      "byteStride": 8,
      "name": "floatBufferViews",
      "target": 34962
    },
    {
      "buffer": 0,
      "byteLength": 208440,
      "byteOffset": 129432,
      "byteStride": 12,
      "name": "floatBufferViews",
      "target": 34962
    },
    {
      "buffer": 0,
      "byteLength": 1488,
      "byteOffset": 337872,
      "name": "floatBufferViews"
    },
    {
      "buffer": 0,
      "byteLength": 1464,
      "byteOffset": 339360,
      "byteStride": 12,
      "name": "floatBufferViews"
    },
    {
      "buffer": 0,
      "byteLength": 4000,
      "byteOffset": 340824,
      "byteStride": 16,
      "name": "floatBufferViews"
    }
  ],
  "buffers": [
    {
      "byteLength": 344824,
      "uri": "scene.bin"
    }
  ],
  "materials": [
    {
      "doubleSided": true,
      "name": "Material",
      "pbrMetallicRoughness": {
        "baseColorFactor": [
          0.00232178,
          0.00232178,
          0.00232178,
          1.0
        ],
        "metallicFactor": 0.0,
        "roughnessFactor": 0.4
      }
    },
    {
      "doubleSided": true,
      "emissiveFactor": [
        0.214041,
        1.0,
        0.0
      ],
      "name": "Material.001"
    },
    {
      "doubleSided": true,
      "name": "Material.004",
      "pbrMetallicRoughness": {
        "baseColorFactor": [
          0.0,
          0.0,
          0.0,
          1.0
        ],
        "metallicFactor": 0.0,
        "roughnessFactor": 0.5
      }
    },
    {
      "doubleSided": true,
      "name": "Material.007",
      "pbrMetallicRoughness": {
        "baseColorFactor": [
          0.00232178,
          0.00232178,
          0.00232178,
          1.0
        ],
        "metallicFactor": 0.0,
        "roughnessFactor": 0.4
      }
    }
  ],
  "meshes": [
    {
      "name": "Object_0",
      "primitives": [
        {
          "attributes": {
            "NORMAL": 1,
            "POSITION": 0,
            "TEXCOORD_0": 2
          },
          "indices": 3,
          "material": 0,
          "mode": 4
        }
      ]
    },
    {
      "name": "Object_1",
      "primitives": [
        {
          "attributes": {
            "NORMAL": 5,
            "POSITION": 4,
            "TEXCOORD_0": 6
          },
          "indices": 7,
          "material": 1,
          "mode": 4
        }
      ]
    },
    {
      "name": "Object_2",
      "primitives": [
        {
          "attributes": {
            "NORMAL": 9,
            "POSITION": 8,
            "TEXCOORD_0": 10
          },
          "indices": 11,
          "material": 0,
          "mode": 4
        }
      ]
    },
    {
      "name": "Object_3",
      "primitives": [
        {
          "attributes": {
            "NORMAL": 13,
            "POSITION": 12,
            "TEXCOORD_0": 14
          },
          "indices": 15,
          "material": 0,
          "mode": 4
        }
      ]
    },
    {
      "name": "Object_4",
      "primitives": [
        {
          "attributes": {
            "NORMAL": 17,
            "POSITION": 16,
            "TEXCOORD_0": 18
          },
          "indices": 19,
          "material": 2,
          "mode": 4
        }
      ]
    },
    {
      "name": "Object_5",
      "primitives": [
        {
          "attributes": {
            "NORMAL": 21,
            "POSITION": 20,
            "TEXCOORD_0": 22
          },
          "indices": 23,
          "material": 3,
          "mode": 4
        }
      ]
    }
  ],
  "nodes": [
    {
      "children": [
        1
      ],
      "matrix": [
        -1.0,
        0.0,
        0.0,
        0.0,
        0.0,
        2.220446049250313e-16,
        -1.0,
        0.0,
        0.0,
        -1.0,
        -2.220446049250313e-16,
        0.0,
        2.8609999844775302e-06,
        2.236215353012085,
        4.965395545868578e-16,
        1.0
      ],
      "name": "Sketchfab_model"
    },
    {
      "children": [
        2
      ],
      "name": "root"
    },
    {
      "children": [
        3,
        6,
        8,
        10,
        12
      ],
      "matrix": [
        1.0,
        0.0,
        0.0,
        0.0,
        0.0,
        2.220446049250313e-16,
        1.0,
        0.0,
        0.0,
        -1.0,
        2.220446049250313e-16,
        0.0,
        0.0,
        0.0,
        0.0,
        1.0
      ],
      "name": "GLTF_SceneRootNode"
    },
    {
      "children": [
        4,
        5
      ],
      "name": "Cube_0",
      "rotation": [
        0.9989544153213501,
        0.04571714252233505,
        0.0,
        7.510237765018246e-08
      ],
      "scale": [
        0.9335063695907593,
        0.933506429195404,
        0.933506429195404
      ],
      "translation": [
        0.020712673664093018,
        1.1746909618377686,
        0.07446401566267014
      ]
    },
    {
      "mesh": 0,
      "name": "Object_4"
    },
    {
      "mesh": 1,
      "name": "Object_5"
    },
    {
      "children": [
        7
      ],
      "matrix": [
        1.0,
        0.0,
        0.0,
        0.0,
        0.0,
        1.215775728225708,
        0.0,
        0.0,
        0.0,
        0.0,
        1.0,
        0.0,
        0.0,
        1.080142855644226,
        0.0,
        1.0
      ],
      "name": "Cylinder_1"
    },
    {
      "mesh": 2,
      "name": "Object_7"
    },
    {
      "children": [
        9
      ],
      "matrix": [
        1.0541534423828125,
        0.0,
        0.0,
        0.0,
        0.0,
        1.540338158607483,
        0.0,
        0.0,
        0.0,
        0.0,
        1.0541534423828125,
        0.0,
        0.0,
        0.17548412084579468,
        0.0,
        1.0
      ],
      "name": "Cylinder.002_2"
    },
    {
      "mesh": 3,
      "name": "Object_9"
    },
    {
      "children": [
        11
      ],
      "name": "Cylinder.005_3",
      "rotation": [
        0.0,
        0.0,
        -0.7071067690849304,
        0.7071068286895752
      ],
      "scale": [
        0.8159434795379639,
        1.474360704421997,
        0.8159434795379639
      ],
      "translation": [
        -0.8427972793579102,
        0.12415696680545807,
        -0.3231855034828186
      ]
    },
    {
      "mesh": 4,
      "name": "Object_11"
    },
    {
      "children": [
        13
      ],
      "name": "Cylinder.004_4",
      "rotation": [
        -0.5,
        0.4999999701976776,
        -0.5,
        0.5000000596046448
      ],
      "scale": [
        0.8159434795379639,
        1.474360704421997,
        0.8159434795379639
      ],
      "translation": [
        0.0,
        -1.9293491840362549,
        0.0
      ]
    },
    {
      "mesh": 5,
      "name": "Object_13"
    }
  ],
  "scene": 0,
  "scenes": [
    {
      "name": "Sketchfab_Scene",
      "nodes": [
        0
      ]
    }
  ]
}
